<svg width="425" height="91" viewBox="0 0 425 91" fill="none" xmlns="http://www.w3.org/2000/svg" xmlns:c2pa="http://c2pa.org/manifest"><metadata><c2pa:manifest>AAAWgmp1bWIAAAAeanVtZGMycGEAEQAQgAAAqgA4m3EDYzJwYQAAABZcanVtYgAAAEdqdW1kYzJtYQARABCAAACqADibcQN1cm46YzJwYTphZDhjOTVjOS0wY2U0LTRlMzMtYTYyZi04OWYxNGM0YWY2MzUAAAADl2p1bWIAAAApanVtZGMyYXMAEQAQgAAAqgA4m3EDYzJwYS5hc3NlcnRpb25zAAAAALxqdW1iAAAARGp1bWRjYm9yABEAEIAAAKoAOJtxE2MycGEuaW5ncmVkaWVudC52MwAAAAAYYzJzaNjZKxFVluT0VwJvMDH8BdUAAABwY2JvcqNpZGM6Zm9ybWF0bWltYWdlL3N2Zyt4bWxqaW5zdGFuY2VJRHgseG1wOmlpZDozZGE1NjA4My0wMjBhLTQ1OWQtOGY5Yy1kMzYzY2I1MDNmMTJscmVsYXRpb25zaGlwaHBhcmVudE9mAAAB4mp1bWIAAABBanVtZGNib3IAEQAQgAAAqgA4m3ETYzJwYS5hY3Rpb25zLnYyAAAAABhjMnNoWxQwjMlkXv/azM1P04h+BAAAAZljYm9yomdhY3Rpb25zgqJmYWN0aW9ua2MycGEub3BlbmVkanBhcmFtZXRlcnOha2luZ3JlZGllbnRzgaJjdXJseC1zZWxmI2p1bWJmPWMycGEuYXNzZXJ0aW9ucy9jMnBhLmluZ3JlZGllbnQudjNkaGFzaFggszYY3Dj1gsBOLy280DKNWKxQwJP0xqy9vBPMPzqC8LukZmFjdGlvbngdY29tLmFudGhyb3BpYy5jbGF1ZGUucHJvdmlkZWRqcGFyYW1ldGVyc6F4H2NvbS5hbnRocm9waWMub3JpZ2luLWNvbmZpZGVuY2VndW5rbm93bmtkZXNjcmlwdGlvbnhmQ2xhdWRlIHByb3ZpZGVkIHRoaXMgZmlsZSBhdCB0aGUgcmVxdWVzdCBvZiBhIHVzZXIgYW5kIG1heSBoYXZlIGNyZWF0ZWQgb3IgbW9kaWZpZWQgdGhlIGZpbGUgY29udGVudHMubXNvZnR3YXJlQWdlbnShZG5hbWVmQ2xhdWRlcmFsbEFjdGlvbnNJbmNsdWRlZPUAAADIanVtYgAAAEBqdW1kY2JvcgARABCAAACqADibcRNjMnBhLmhhc2guZGF0YQAAAAAYYzJzaLJ7PRWkYQHvIqXESpZQfAUAAACAY2JvcqVjYWxnZnNoYTI1NmNwYWRNAAAAAAAAAAAAAAAAAGRoYXNoWCBCZou+Hw3/CoP82dxxI5OVh5Q9cnGYKqaPNQcwBK0ZiWRuYW1lbmp1bWJmIG1hbmlmZXN0amV4Y2x1c2lvbnOBomVzdGFydBigZmxlbmd0aBkeBAAAAj5qdW1iAAAAJ2p1bWRjMmNsABEAEIAAAKoAOJtxA2MycGEuY2xhaW0udjIAAAACD2Nib3KlY2FsZ2ZzaGEyNTZpc2lnbmF0dXJleE1zZWxmI2p1bWJmPS9jMnBhL3VybjpjMnBhOmFkOGM5NWM5LTBjZTQtNGUzMy1hNjJmLTg5ZjE0YzRhZjYzNS9jMnBhLnNpZ25hdHVyZWppbnN0YW5jZUlEeCx4bXA6aWlkOmQzZjgyOGExLTMyY2YtNDBhNC05M2VjLTAyMzk1Zjg3MjYyOHJjcmVhdGVkX2Fzc2VydGlvbnODomN1cmx4LXNlbGYjanVtYmY9YzJwYS5hc3NlcnRpb25zL2MycGEuaW5ncmVkaWVudC52M2RoYXNoWCCzNhjcOPWCwE4vLbzQMo1YrFDAk/TGrL28E8w/OoLwu6JjdXJseCpzZWxmI2p1bWJmPWMycGEuYXNzZXJ0aW9ucy9jMnBhLmFjdGlvbnMudjJkaGFzaFggS1eRE2LZ3+FXfb02fOJ07/kfu7fd7UEw6mISFTuabweiY3VybHgpc2VsZiNqdW1iZj1jMnBhLmFzc2VydGlvbnMvYzJwYS5oYXNoLmRhdGFkaGFzaFggCBk6nWDztAmQyKq+StU2tZ05oaPC3L/HHCmoFYwUke10Y2xhaW1fZ2VuZXJhdG9yX2luZm+jZG5hbWVvQW50aHJvcGljIEZpbGVzZ3ZlcnNpb25lMS4wLjBrc3BlY1ZlcnNpb25lMi40LjAAABA4anVtYgAAAChqdW1kYzJjcwARABCAAACqADibcQNjMnBhLnNpZ25hdHVyZQAAABAIY2JvctKEWQISogEmGCFZAgowggIGMIIBjaADAgECAhRA5aAK7sI50L64g/oGQgU9Z1UTADAKBggqhkjOPQQDAzBJMRcwFQYDVQQKEw5BbnRocm9waWMsIFBCQzEuMCwGA1UEAxMlQW50aHJvcGljIENvbnRlbnQgQ3JlZGVudGlhbHMgUm9vdCBDQTAeFw0yNjA4MDcxODQzNTZaFw0yODA4MDYxOTQzNTZaMEQxFzAVBgNVBAoTDkFudGhyb3BpYywgUEJDMSkwJwYDVQQDEyBBbnRocm9waWMgQ2xhdWRlIENvbnRlbnQgU2lnbmluZzBZMBMGByqGSM49AgEGCCqGSM49AwEHA0IABJh6CmvLUBgFFNU0vUKlOVtE6djd17L5SuwX0LemFisBM3dkd/3cyjxFA3Qo5S46fX0/ihY0VZ7mfb9KF703t5OjWDBWMA4GA1UdDwEB/wQEAwIHgDAVBgNVHSUEDjAMBgorBgEEAYPoXgIBMAwGA1UdEwEB/wQCMAAwHwYDVR0jBBgwFoAUzlHiBIFOZFsj+OPEz5o+nMHXXMIwCgYIKoZIzj0EAwMDZwAwZAIwMXMdFJ4BetLLVY7ORuE9noqbbAZOZn/aArXyTwFAZfKrPzxF2vPoJNf1+UCdg1XGAjBwX1zd9WGqYkqmL5SFqw1QySjr1zJfpJM9+1rdDwSPLMOPOjKuiXjoU/pUUeG9RwmhY3BhZFkNngAAAAAAAAAAAAAAAAAAAAAAAAAAAAAAAAAAAAAAAAAAAAAAAAAAAAAAAAAAAAAAAAAAAAAAAAAAAAAAAAAAAAAAAAAAAAAAAAAAAAAAAAAAAAAAAAAAAAAAAAAAAAAAAAAAAAAAAAAAAAAAAAAAAAAAAAAAAAAAAAAAAAAAAAAAAAAAAAAAAAAAAAAAAAAAAAAAAAAAAAAAAAAAAAAAAAAAAAAAAAAAAAAAAAAAAAAAAAAAAAAAAAAAAAAAAAAAAAAAAAAAAAAAAAAAAAAAAAAAAAAAAAAAAAAAAAAAAAAAAAAAAAAAAAAAAAAAAAAAAAAAAAAAAAAAAAAAAAAAAAAAAAAAAAAAAAAAAAAAAAAAAAAAAAAAAAAAAAAAAAAAAAAAAAAAAAAAAAAAAAAAAAAAAAAAAAAAAAAAAAAAAAAAAAAAAAAAAAAAAAAAAAAAAAAAAAAAAAAAAAAAAAAAAAAAAAAAAAAAAAAAAAAAAAAAAAAAAAAAAAAAAAAAAAAAAAAAAAAAAAAAAAAAAAAAAAAAAAAAAAAAAAAAAAAAAAAAAAAAAAAAAAAAAAAAAAAAAAAAAAAAAAAAAAAAAAAAAAAAAAAAAAAAAAAAAAAAAAAAAAAAAAAAAAAAAAAAAAAAAAAAAAAAAAAAAAAAAAAAAAAAAAAAAAAAAAAAAAAAAAAAAAAAAAAAAAAAAAAAAAAAAAAAAAAAAAAAAAAAAAAAAAAAAAAAAAAAAAAAAAAAAAAAAAAAAAAAAAAAAAAAAAAAAAAAAAAAAAAAAAAAAAAAAAAAAAAAAAAAAAAAAAAAAAAAAAAAAAAAAAAAAAAAAAAAAAAAAAAAAAAAAAAAAAAAAAAAAAAAAAAAAAAAAAAAAAAAAAAAAAAAAAAAAAAAAAAAAAAAAAAAAAAAAAAAAAAAAAAAAAAAAAAAAAAAAAAAAAAAAAAAAAAAAAAAAAAAAAAAAAAAAAAAAAAAAAAAAAAAAAAAAAAAAAAAAAAAAAAAAAAAAAAAAAAAAAAAAAAAAAAAAAAAAAAAAAAAAAAAAAAAAAAAAAAAAAAAAAAAAAAAAAAAAAAAAAAAAAAAAAAAAAAAAAAAAAAAAAAAAAAAAAAAAAAAAAAAAAAAAAAAAAAAAAAAAAAAAAAAAAAAAAAAAAAAAAAAAAAAAAAAAAAAAAAAAAAAAAAAAAAAAAAAAAAAAAAAAAAAAAAAAAAAAAAAAAAAAAAAAAAAAAAAAAAAAAAAAAAAAAAAAAAAAAAAAAAAAAAAAAAAAAAAAAAAAAAAAAAAAAAAAAAAAAAAAAAAAAAAAAAAAAAAAAAAAAAAAAAAAAAAAAAAAAAAAAAAAAAAAAAAAAAAAAAAAAAAAAAAAAAAAAAAAAAAAAAAAAAAAAAAAAAAAAAAAAAAAAAAAAAAAAAAAAAAAAAAAAAAAAAAAAAAAAAAAAAAAAAAAAAAAAAAAAAAAAAAAAAAAAAAAAAAAAAAAAAAAAAAAAAAAAAAAAAAAAAAAAAAAAAAAAAAAAAAAAAAAAAAAAAAAAAAAAAAAAAAAAAAAAAAAAAAAAAAAAAAAAAAAAAAAAAAAAAAAAAAAAAAAAAAAAAAAAAAAAAAAAAAAAAAAAAAAAAAAAAAAAAAAAAAAAAAAAAAAAAAAAAAAAAAAAAAAAAAAAAAAAAAAAAAAAAAAAAAAAAAAAAAAAAAAAAAAAAAAAAAAAAAAAAAAAAAAAAAAAAAAAAAAAAAAAAAAAAAAAAAAAAAAAAAAAAAAAAAAAAAAAAAAAAAAAAAAAAAAAAAAAAAAAAAAAAAAAAAAAAAAAAAAAAAAAAAAAAAAAAAAAAAAAAAAAAAAAAAAAAAAAAAAAAAAAAAAAAAAAAAAAAAAAAAAAAAAAAAAAAAAAAAAAAAAAAAAAAAAAAAAAAAAAAAAAAAAAAAAAAAAAAAAAAAAAAAAAAAAAAAAAAAAAAAAAAAAAAAAAAAAAAAAAAAAAAAAAAAAAAAAAAAAAAAAAAAAAAAAAAAAAAAAAAAAAAAAAAAAAAAAAAAAAAAAAAAAAAAAAAAAAAAAAAAAAAAAAAAAAAAAAAAAAAAAAAAAAAAAAAAAAAAAAAAAAAAAAAAAAAAAAAAAAAAAAAAAAAAAAAAAAAAAAAAAAAAAAAAAAAAAAAAAAAAAAAAAAAAAAAAAAAAAAAAAAAAAAAAAAAAAAAAAAAAAAAAAAAAAAAAAAAAAAAAAAAAAAAAAAAAAAAAAAAAAAAAAAAAAAAAAAAAAAAAAAAAAAAAAAAAAAAAAAAAAAAAAAAAAAAAAAAAAAAAAAAAAAAAAAAAAAAAAAAAAAAAAAAAAAAAAAAAAAAAAAAAAAAAAAAAAAAAAAAAAAAAAAAAAAAAAAAAAAAAAAAAAAAAAAAAAAAAAAAAAAAAAAAAAAAAAAAAAAAAAAAAAAAAAAAAAAAAAAAAAAAAAAAAAAAAAAAAAAAAAAAAAAAAAAAAAAAAAAAAAAAAAAAAAAAAAAAAAAAAAAAAAAAAAAAAAAAAAAAAAAAAAAAAAAAAAAAAAAAAAAAAAAAAAAAAAAAAAAAAAAAAAAAAAAAAAAAAAAAAAAAAAAAAAAAAAAAAAAAAAAAAAAAAAAAAAAAAAAAAAAAAAAAAAAAAAAAAAAAAAAAAAAAAAAAAAAAAAAAAAAAAAAAAAAAAAAAAAAAAAAAAAAAAAAAAAAAAAAAAAAAAAAAAAAAAAAAAAAAAAAAAAAAAAAAAAAAAAAAAAAAAAAAAAAAAAAAAAAAAAAAAAAAAAAAAAAAAAAAAAAAAAAAAAAAAAAAAAAAAAAAAAAAAAAAAAAAAAAAAAAAAAAAAAAAAAAAAAAAAAAAAAAAAAAAAAAAAAAAAAAAAAAAAAAAAAAAAAAAAAAAAAAAAAAAAAAAAAAAAAAAAAAAAAAAAAAAAAAAAAAAAAAAAAAAAAAAAAAAAAAAAAAAAAAAAAAAAAAAAAAAAAAAAAAAAAAAAAAAAAAAAAAAAAAAAAAAAAAAAAAAAAAAAAAAAAAAAAAAAAAAAAAAAAAAAAAAAAAAAAAAAAAAAAAAAAAAAAAAAAAAAAAAAAAAAAAAAAAAAAAAAAAAAAAAAAAAAAAAAAAAAAAAAAAAAAAAAAAAAAAAAAAAAAAAAAAAAAAAAAAAAAAAAAAAAAAAAAAAAAAAAAAAAAAAAAAAAAAAAAAAAAAAAAAAAAAAAAAAAAAAAAAAAAAAAAAAAAAAAAAAAAAAAAAAAAAAAAAAAAAAAAAAAAAAAAAAAAAAAAAAAAAAAAAAAAAAAAAAAAAAAAAAAAAAAAAAAAAAAAAAAAAAAAAAAAAAAAAAAAAAAAAAAAAAAAAAAAAAAAAAAAAAAAAAAAAAAAAAAAAAAAAAAAAAAAAAAAAAAAAAAAAAAAAAAAAAAAAAAAAAAAAAAAAAAAAAAAAAAAAAAAAAAAAAAAAAAAAAAAAAAAAAAAAAAAAAAAAAAAAAAAAAAAAAAAAAAAAAAAAAAAAAAAAAAAAAAAAAAAAAAAAAAAAAAAAAAAAAAAAAAAAAAAAAAAAAAAAAAAAAAAAAAAAAAAAAAAAAAAAAAAAAAAAAAAAAAAAAAAAAAAAAAAAAAAAAAAAAAAAAAAAAAAAAAAAAAAAAAAAAAAAAAAAAAAAAAAAAAAAAAAAAAAAAAAAAAAAAAAAAAAAAAAAAAAAAAAAAAAAAAAAAAAAAAAAAAAAAAAAAAAAAAAAAAAAAAAAAAAAAAAAAAAAAAAAAAAAAAAAAAAAAAAAAAAAAAAAAAAAAAAAAAAAAAAAAAAAAAAAAAAAAAAAAAAAAAAAAAAAAAAAAAAAAAAAAAAAAAAAAAAAAAAAAAAAAAAAAAAAAAAAAAAAAAAAAAAAAAAAAAAAAAAAAAAAAAAAAAAAAAAAAAAAAAAAAAAAAAAAAAAAAAAAAAAAAAAAAAAAAAAAAAAAAAAAAAAAAAAAAAAAAAAAAAAAAAAAAAAAAAAAAAAAAAAAAAAAAAAAAAAAAAAAAAAAAAAAAAAAAAAAAAAAAAAAAAAAAAAAAAAAAAAAAAAAAAAAAAAAAAAAAAAAAAAAAAAAAAAAAAAAAAAAAAAAAAAAAAAAAAAAAAAAAAAAAAAAAAAAAAAAAAAAAAAAAAAAAAAAAAAAAAAAAAAAAAAAAAAAAAAAAAAAAAAAAAAAAAAAAAAAAAAAAAAAAAAAAAAAAAAAAAAAAAAAAAAAAAAAAAAAAAAAAAAAAAAAAAAAAAAAAAAAAAAAAAAAAAAAAAAAAAAAAAAAAAAAAAAAAAAAAAAAAAAAAAAAAAAAAAAAAAAAAAAAAAAAAAAAAAAAAAAAAAAAAAAAAAAAAAAAAAAAAAAAAAAAAAAAAAAAAAAAAAAAAAAAAAAAAAAAAAAAAAAAAAAAAAAAAAAAAAAAAAAAAAAAAAAAAAAAAAAAAAAAAAAAAAAAAAAAAAAAAAAAAAAAAAAAAAAAAAAAAAAAAAAAAAAAAAAAAAAAAAAAAAAAAAAAAAAAAAAAAAAAAAAAAAAAAAAAAAAAAAAAAAAAAAAAAAAAAAAAAAAAAAAAAAAAAAAAAAAAAAAAAAAAAAAAAAAAAAAAAAAAAAAAAAAAAAAAAAAAAAAAAAAAAAAAAAAAAAAAAAAAAAAAAAAAAAAAAAAAAAAAAAAAAAAAAAAAAAAAAAAAAAAAAAAAAAAPZYQEyoZ0JibY7VOlu2p8ZSZnNbTIlfYRHm43vCqhpno1fALV+bRZPS0YUX2KqK7PzSNYM9d1IAUI8GOU7LgyodjCg=</c2pa:manifest></metadata>
<path d="M24.7405 52.6111H9.23114V51.9617C10.1418 51.6715 11.0387 51.1463 11.9218 50.3863C12.8049 49.6263 13.2465 48.8386 13.2465 48.0233V1.9792H8.37564C7.46494 1.9792 6.59564 2.22792 5.78153 2.7254C4.95363 3.22288 4.29131 3.81709 3.76697 4.48039C3.24263 5.15751 2.75968 5.94519 2.30433 6.84341C1.84899 7.74163 1.53162 8.50164 1.32465 9.09585C1.13147 9.69006 0.938292 10.2843 0.772711 10.8508H0L0.717517 0.445312H33.2266L33.9441 10.8508H33.1714C32.9506 10.0908 32.7022 9.30313 32.3987 8.51546C32.0951 7.72779 31.6398 6.78811 31.0326 5.68261C30.4255 4.59093 29.6528 3.69272 28.7007 2.98796C27.7486 2.2832 26.7137 1.95155 25.5823 1.95155H20.7114V47.9957C20.7114 48.5208 20.946 49.0735 21.3875 49.6401C21.8291 50.2067 22.3672 50.6903 22.9744 51.0773C23.5815 51.4642 24.161 51.7405 24.7267 51.934V52.5835L24.7405 52.6111Z" fill="#BF9E4B"/>
<path d="M85.3566 44.527C85.0254 45.3147 84.5839 46.2682 83.9905 47.3599C83.411 48.4654 82.6383 49.3636 81.6862 50.0545C80.7341 50.7455 79.6992 51.0909 78.5677 51.0909H64.4244V1.96522H78.5677C79.4784 1.96522 80.3477 2.21397 81.1756 2.72526C81.9897 3.22274 82.6659 3.80311 83.1764 4.48023C83.7007 5.14353 84.1837 5.93121 84.639 6.84325C85.0944 7.75528 85.4256 8.5015 85.6187 9.10952C85.8119 9.70373 85.9775 10.2841 86.1017 10.8645H86.9434L86.2259 0.458984H52.9441V1.17754C53.8548 1.41246 54.7379 1.92377 55.6072 2.72526C56.4627 3.51293 56.9042 4.28677 56.9042 5.0468V48.0093C56.9042 48.5344 56.6835 49.0872 56.2557 49.6538C55.8142 50.2341 55.3036 50.7178 54.6965 51.0909C54.0894 51.4778 53.5098 51.768 52.9441 51.9477V52.5972H86.2259L86.9434 42.2054H86.1017C85.9223 42.9655 85.6877 43.7393 85.3566 44.527Z" fill="#BF9E4B"/>
<path d="M79.0232 19.9712V33.099H78.4298C77.395 29.2159 75.8219 27.1431 73.697 27.1431L69.6265 26.8806V26.0791L73.697 25.8994C75.8219 25.8994 77.395 23.8404 78.4298 19.9712H79.0232Z" fill="#BF9E4B"/>
<path d="M130.78 51.7612C131.65 51.4296 132.312 50.8077 132.795 49.8957C133.264 48.9836 133.292 48.1269 132.864 47.3116L124.24 31.2403L112.498 48.4585C112.153 48.9836 112.249 49.5917 112.787 50.2826C113.326 50.9735 113.946 51.471 114.636 51.7474V52.6042H105.943V51.7474C108.151 50.9321 109.559 50.0753 110.166 49.1633L123.467 29.7203L109.903 4.40431C109.6 3.97593 109.214 3.53372 108.731 3.0777C108.248 2.62169 107.792 2.2486 107.337 1.97222C106.882 1.68203 106.454 1.47474 106.068 1.32274V0.46596H121.894V1.32274C121.122 1.65439 120.459 2.27622 119.921 3.18826C119.383 4.1003 119.286 4.88797 119.631 5.55127L128.587 22.1891L140.66 4.54251C141.005 4.0174 140.881 3.42319 140.301 2.74607C139.722 2.08277 139.101 1.5991 138.452 1.3089V0.452148H146.635V1.3089C144.91 1.97221 143.654 2.8566 142.868 3.9621L129.373 23.6815L142.744 48.6382C143.171 49.3015 143.765 49.9233 144.496 50.5037C145.227 51.0841 145.904 51.4848 146.511 51.7198V52.5765H130.808V51.7198L130.78 51.7612Z" fill="#BF9E4B"/>
<path d="M190.375 52.6111H174.866V51.9617C175.777 51.6715 176.673 51.1463 177.557 50.3863C178.44 49.6263 178.881 48.8386 178.881 48.0233V1.9792H174.01C173.1 1.9792 172.23 2.22792 171.416 2.7254C170.588 3.22288 169.926 3.81709 169.402 4.48039C168.877 5.15751 168.394 5.94519 167.939 6.84341C167.484 7.74163 167.166 8.50164 166.959 9.09585C166.766 9.69006 166.573 10.2843 166.407 10.8508H165.635L166.352 0.445312H198.861L199.579 10.8508H198.806C198.585 10.0908 198.337 9.30313 198.033 8.51546C197.73 7.72779 197.275 6.78811 196.667 5.68261C196.06 4.59093 195.288 3.69272 194.335 2.98796C193.383 2.2832 192.348 1.95155 191.217 1.95155H186.346V47.9957C186.346 48.5208 186.581 49.0735 187.022 49.6401C187.464 50.2067 188.002 50.6903 188.609 51.0773C189.216 51.4642 189.796 51.7405 190.362 51.934V52.5835L190.375 52.6111Z" fill="#BF9E4B"/>
<path d="M222.539 37.5692V4.65292C222.539 3.89289 222.111 3.10521 221.242 2.31755C220.373 1.52988 219.49 1.01859 218.579 0.769851V0.0512695H234.088V0.769851C233.178 1.00477 232.281 1.51606 231.398 2.31755C230.514 3.11903 230.073 3.87907 230.073 4.65292V37.431C230.073 40.8719 230.997 43.76 232.833 46.1092C234.668 48.4584 236.903 49.8955 239.511 50.4483C242.133 51.001 244.741 51.001 247.335 50.4483C249.929 49.8955 252.15 48.4584 253.986 46.1092C255.821 43.7738 256.745 40.8443 256.745 37.3619V4.65292C256.745 3.89289 256.304 3.10521 255.421 2.31755C254.538 1.52988 253.654 1.01859 252.785 0.769851V0.0512695H262.127V0.769851C261.216 1.00477 260.333 1.51606 259.464 2.31755C258.594 3.10521 258.167 3.87907 258.167 4.65292V37.3619C258.167 42.4334 256.511 46.3027 253.199 48.9835C249.887 51.6643 245.596 53.0048 240.325 53.0048C235.054 53.0048 230.984 51.6505 227.603 48.9559C224.222 46.2612 222.539 42.4611 222.539 37.583V37.5692Z" fill="#BF9E4B"/>
<path d="M281.127 0H299.561C305.136 0 309.386 1.31277 312.284 3.93833C315.181 6.5639 316.63 9.74223 316.63 13.4733C316.63 16.4443 315.706 19.139 313.87 21.5849C312.035 24.017 309.317 25.7858 305.729 26.8913C309.151 27.5684 311.511 28.7707 312.808 30.5118C314.105 32.253 314.864 34.6298 315.085 37.6423L315.54 43.5291C315.623 44.6346 315.747 45.6019 315.899 46.431C316.05 47.274 316.257 48.0893 316.52 48.9046C316.782 49.7199 317.141 50.3555 317.596 50.8116C318.051 51.2676 318.603 51.4887 319.252 51.4887V52.1382C317.348 52.6633 315.719 52.9673 314.353 53.0364C312.987 53.1055 311.87 52.9949 310.973 52.7186C310.09 52.4284 309.386 51.9033 308.862 51.1432C308.337 50.3832 307.965 49.4988 307.73 48.49C307.495 47.4813 307.33 46.2238 307.247 44.6899L306.93 38.3747C306.888 37.5594 306.806 36.7855 306.695 36.0393C306.585 35.2931 306.447 34.5607 306.267 33.8145C306.088 33.0683 305.881 32.405 305.619 31.8108C305.357 31.2166 305.039 30.65 304.681 30.1249C304.308 29.5998 303.894 29.1576 303.411 28.7983C302.928 28.439 302.376 28.1626 301.728 27.9692C301.079 27.7757 300.389 27.679 299.658 27.679H292.648V47.5503C292.648 48.3656 293.09 49.1533 293.973 49.9134C294.856 50.6734 295.753 51.1985 296.664 51.4887V52.1382H281.154V51.4887C282.024 51.2538 282.879 50.7563 283.748 50.0239C284.618 49.2777 285.073 48.5315 285.114 47.7714V4.44964C285.073 3.68961 284.618 2.92957 283.748 2.19718C282.879 1.45096 282.024 0.967312 281.154 0.732393V0.0138112L281.127 0ZM292.621 26.1727H299.63C301.755 26.1727 303.535 25.5509 304.984 24.3072C306.433 23.0635 307.454 21.5434 308.034 19.747C308.613 17.9506 308.889 15.9607 308.848 13.7635C308.848 10.3226 308.075 7.42067 306.543 5.04384C305.012 2.68083 302.707 1.49243 299.63 1.49243H292.621V26.1589V26.1727Z" fill="#BF9E4B"/>
<path d="M370.664 44.527C370.333 45.3147 369.891 46.2682 369.298 47.3599C368.719 48.4654 367.946 49.3636 366.994 50.0545C366.042 50.7455 365.007 51.0909 363.875 51.0909H349.732V1.96522H363.875C364.786 1.96522 365.655 2.21397 366.483 2.72526C367.297 3.22274 367.973 3.80311 368.484 4.48023C369.008 5.14353 369.491 5.93121 369.947 6.84325C370.402 7.75528 370.733 8.5015 370.926 9.10952C371.12 9.70373 371.285 10.2841 371.409 10.8645H372.251L371.533 0.458984H338.252V1.17754C339.162 1.41246 340.045 1.92377 340.915 2.72526C341.77 3.51293 342.212 4.28677 342.212 5.0468V48.0093C342.212 48.5344 341.991 49.0872 341.563 49.6538C341.122 50.2341 340.611 50.7178 340.004 51.0909C339.397 51.4778 338.817 51.768 338.252 51.9477V52.5972H371.533L372.251 42.2054H371.409C371.23 42.9655 370.995 43.7393 370.664 44.527Z" fill="#BF9E4B"/>
<path d="M364.331 19.9712V33.099H363.737C362.703 29.2159 361.13 27.1431 359.005 27.1431L354.934 26.8806V26.0791L359.005 25.8994C361.13 25.8994 362.703 23.8404 363.737 19.9712H364.331Z" fill="#BF9E4B"/>
<path d="M397.667 10.0066C397.667 10.7667 397.791 11.5267 398.026 12.2591C398.261 13.0053 398.647 13.6962 399.199 14.3457C399.737 14.9952 400.289 15.5756 400.855 16.1007C401.42 16.6258 402.152 17.1924 403.062 17.7866C403.973 18.3808 404.773 18.8921 405.463 19.2928C406.153 19.6936 407.064 20.2325 408.182 20.9096C409.313 21.5868 410.21 22.1119 410.914 22.485C411.038 22.6232 411.259 22.7752 411.562 22.9134C413.039 23.8254 414.115 24.5025 414.805 24.9585C415.495 25.4146 416.406 26.0364 417.537 26.8241C418.655 27.6117 419.483 28.2889 420.007 28.8278C420.531 29.3805 421.125 30.0853 421.828 30.9421C422.532 31.7988 423.001 32.6556 423.263 33.4847C423.525 34.3277 423.746 35.2812 423.939 36.359C424.133 37.4369 424.188 38.6115 424.105 39.9104C423.981 42.3011 423.263 44.4153 421.966 46.2532C420.669 48.0911 419.041 49.4868 417.095 50.4542C415.15 51.4076 412.97 52.0986 410.569 52.4993C408.168 52.9001 405.781 52.983 403.394 52.7204C401.006 52.4579 398.744 51.9328 396.577 51.1451C394.411 50.3574 392.645 49.321 391.251 48.022L394.176 38.266H394.632C395.363 43.7659 397.833 47.6351 402.028 49.8876C405.408 51.7531 408.803 52.0709 412.211 50.8134C415.288 49.7079 417.123 47.7319 417.73 44.8576C417.854 44.3739 417.923 43.8764 417.923 43.3513C418.006 41.9142 417.785 40.5599 417.247 39.261C416.709 37.9758 415.867 36.8012 414.722 35.751C413.577 34.7008 412.445 33.7887 411.341 33.0287C410.238 32.2687 408.872 31.4257 407.216 30.5137C406.788 30.2788 406.084 29.878 405.105 29.3253C404.125 28.7725 403.394 28.3718 402.897 28.1092C402.4 27.8467 401.71 27.4459 400.827 26.8932C399.944 26.3404 399.268 25.8982 398.813 25.5666C398.357 25.2349 397.778 24.7651 397.06 24.1709C396.343 23.5767 395.791 23.0239 395.404 22.5264C395.018 22.029 394.576 21.4209 394.107 20.7024C393.624 19.9838 393.279 19.279 393.031 18.5881C392.796 17.8972 392.589 17.1233 392.41 16.2527C392.231 15.396 392.148 14.4839 392.148 13.5304C392.148 10.9463 392.741 8.70767 393.928 6.78686C395.115 4.87987 396.66 3.44272 398.564 2.48923C400.468 1.53573 402.538 0.858618 404.787 0.485511C407.036 0.098586 409.313 0.084769 411.604 0.444057C413.894 0.803344 415.978 1.43901 417.827 2.35105C419.124 2.87617 420.103 2.93143 420.78 2.48923C421.456 2.06085 421.87 1.38373 422.049 0.485511H422.629L421.594 11.6787H420.945C420.172 9.05315 418.834 6.86979 416.957 5.15626C415.081 3.42891 413.052 2.37869 410.886 1.96413C408.72 1.56338 406.636 1.54955 404.622 1.92265C402.607 2.30958 400.937 3.22162 399.627 4.68641C398.302 6.15119 397.653 7.92001 397.653 10.0343L397.667 10.0066Z" fill="#BF9E4B"/>
<path d="M99.3594 90.8251C98.7769 90.8251 98.1945 90.7901 97.6121 90.7085C97.0296 90.6268 96.4356 90.4868 95.8182 90.2885C95.2008 90.0902 94.5718 89.8219 93.9195 89.4836C93.2672 89.1453 92.5799 88.7253 91.8577 88.212L92.8245 85.2956C93.0342 86.1472 93.3487 86.8938 93.768 87.5121C94.1874 88.1303 94.6999 88.6553 95.2824 89.0636C95.8648 89.4719 96.5288 89.7752 97.2743 89.9735C98.0081 90.1718 98.8002 90.2652 99.6506 90.2652C100.315 90.2652 100.944 90.1602 101.538 89.9502C102.132 89.7402 102.656 89.4369 103.099 89.052C103.553 88.667 103.914 88.2003 104.182 87.6637C104.45 87.1271 104.601 86.5205 104.625 85.8672C104.625 85.0856 104.485 84.409 104.159 83.8607C103.832 83.3124 103.425 82.8341 102.912 82.4374C102.4 82.0408 101.829 81.7025 101.2 81.4225C100.571 81.1425 99.9418 80.8859 99.3128 80.6526C98.8119 80.4659 98.2993 80.2676 97.7868 80.0576C97.2626 79.8476 96.7617 79.6143 96.2841 79.346C95.7949 79.0894 95.3406 78.7861 94.9213 78.4594C94.5019 78.1328 94.1291 77.7478 93.8146 77.3278C93.5001 76.9079 93.2555 76.4179 93.0924 75.8813C92.9293 75.3447 92.8478 74.7264 92.8594 74.0498C92.8827 73.2915 93.0575 72.6032 93.3953 71.9966C93.7331 71.3783 94.199 70.865 94.7815 70.4334C95.3639 70.0017 96.0628 69.6751 96.8549 69.4418C97.647 69.2085 98.509 69.0918 99.4292 69.0918C100 69.0918 100.571 69.1385 101.142 69.2201C101.712 69.3134 102.295 69.4534 102.889 69.6517C103.483 69.8501 104.089 70.1067 104.718 70.4217C105.335 70.7367 105.987 71.11 106.663 71.5533L105.673 74.4814C105.452 73.5481 105.125 72.7782 104.659 72.1482C104.205 71.5299 103.693 71.04 103.11 70.6667C102.528 70.2934 101.922 70.0367 101.27 69.8734C100.617 69.7217 100 69.6401 99.4176 69.6401C98.7886 69.6401 98.1945 69.7451 97.6354 69.9667C97.0762 70.1884 96.587 70.48 96.1676 70.8767C95.7599 71.2616 95.4454 71.7283 95.2241 72.2649C95.0028 72.8015 94.9329 73.4081 94.9911 74.0614C95.0494 74.6797 95.2358 75.228 95.5503 75.683C95.8648 76.1379 96.2492 76.5579 96.7151 76.9195C97.1811 77.2812 97.7053 77.5961 98.276 77.8645C98.8468 78.1328 99.4293 78.3778 100 78.6111C100.536 78.8211 101.095 79.031 101.654 79.2527C102.213 79.4743 102.761 79.731 103.285 79.9993C103.809 80.2676 104.298 80.5826 104.753 80.9209C105.207 81.2709 105.591 81.6675 105.906 82.1341C106.22 82.5891 106.453 83.114 106.605 83.6973C106.756 84.2806 106.78 84.9573 106.698 85.7272C106.605 86.6371 106.314 87.4187 105.836 88.0604C105.358 88.702 104.764 89.2269 104.077 89.6352C103.378 90.0435 102.621 90.3352 101.794 90.5218C100.967 90.7085 100.151 90.8018 99.3477 90.8018L99.3594 90.8251Z" fill="#BF9E4B"/>
<path d="M112.417 90.79C112.522 90.755 112.65 90.7083 112.779 90.6616C112.907 90.615 113.058 90.5333 113.21 90.4283C113.361 90.3234 113.524 90.1717 113.699 89.985C113.862 89.7984 114.037 89.5534 114.2 89.2501L122.121 70.6315C122.202 70.4682 122.214 70.2932 122.156 70.1066C122.097 69.9199 122.016 69.7566 121.899 69.6166C121.783 69.4649 121.666 69.3483 121.538 69.2433C121.41 69.1383 121.317 69.08 121.247 69.0566H124.066L132.465 88.9234C132.744 89.4951 133.059 89.915 133.397 90.195C133.734 90.475 134.107 90.6733 134.527 90.8017H129.541C129.657 90.7667 129.774 90.72 129.89 90.65C130.007 90.58 130.112 90.4867 130.193 90.3584C130.275 90.23 130.333 90.09 130.368 89.9034C130.403 89.7284 130.391 89.5301 130.333 89.2968L126.652 80.5708H118.51L114.817 89.2384C114.701 89.635 114.701 89.9617 114.817 90.2184C114.934 90.475 115.19 90.6616 115.609 90.7666H112.429L112.417 90.79ZM126.419 80.0225L122.598 70.9232L118.731 80.0575L126.419 80.0341V80.0225Z" fill="#BF9E4B"/>
<path d="M143.939 90.2652H154.026C154.376 90.2652 154.702 90.1719 155.005 90.0319C155.308 89.8802 155.564 89.7169 155.785 89.5186C156.007 89.3203 156.193 89.1336 156.333 88.9353C156.484 88.737 156.577 88.597 156.647 88.492L156.018 90.8135H140.875C140.875 90.8135 141.003 90.7551 141.108 90.7085C141.213 90.6618 141.329 90.5802 141.446 90.4635C141.562 90.3468 141.667 90.1835 141.749 89.9619C141.83 89.7519 141.877 89.4602 141.877 89.1103V70.8067C141.877 70.2934 141.784 69.9201 141.632 69.6751C141.481 69.4301 141.224 69.2435 140.887 69.0918H144.964C144.603 69.2435 144.346 69.4418 144.195 69.6984C144.043 69.9551 143.974 70.34 143.962 70.8417V90.2535L143.939 90.2652Z" fill="#BF9E4B"/>
<path d="M171.977 69.1152C173.095 69.1152 174.167 69.2435 175.192 69.4885C176.217 69.7335 177.172 70.0951 178.057 70.5618C178.943 71.0284 179.747 71.5767 180.469 72.23C181.191 72.8833 181.808 73.6065 182.321 74.4115C182.833 75.2164 183.229 76.0797 183.509 77.013C183.789 77.9462 183.928 78.9261 183.928 79.9527C183.928 80.9793 183.789 81.9709 183.509 82.9042C183.229 83.8374 182.833 84.7123 182.321 85.5173C181.808 86.3222 181.191 87.0455 180.469 87.6988C179.747 88.3521 178.943 88.912 178.057 89.367C177.172 89.8336 176.217 90.1836 175.192 90.4402C174.167 90.6969 173.095 90.8136 171.977 90.8136C170.3 90.8136 168.739 90.5336 167.283 89.962C165.826 89.3904 164.568 88.6087 163.497 87.6288C162.425 86.6372 161.575 85.494 160.957 84.1757C160.34 82.8575 160.037 81.4576 160.037 79.9527C160.037 78.9495 160.177 77.9929 160.456 77.0713C160.736 76.1497 161.132 75.2864 161.645 74.4815C162.157 73.6765 162.775 72.9416 163.497 72.2883C164.219 71.635 165.023 71.0634 165.896 70.5968C166.782 70.1302 167.737 69.7569 168.762 69.5002C169.787 69.2436 170.859 69.1152 171.977 69.1152ZM171.977 90.2653C173.468 90.2653 174.819 89.9969 176.031 89.4603C177.242 88.9237 178.279 88.2004 179.152 87.2672C180.026 86.3456 180.69 85.249 181.156 84.0008C181.622 82.7525 181.867 81.3993 181.867 79.9644C181.867 78.5295 181.634 77.1763 181.156 75.928C180.69 74.6798 180.014 73.5949 179.152 72.6616C178.29 71.74 177.242 71.0051 176.031 70.4801C174.819 69.9552 173.468 69.6868 171.977 69.6868C170.486 69.6868 169.146 69.9552 167.935 70.4801C166.723 71.0051 165.675 71.74 164.813 72.6616C163.951 73.5949 163.275 74.6798 162.786 75.928C162.309 77.1763 162.064 78.5178 162.064 79.9644C162.064 81.411 162.309 82.7525 162.786 84.0008C163.264 85.249 163.939 86.3456 164.813 87.2672C165.687 88.2004 166.723 88.9237 167.935 89.4603C169.146 89.9969 170.498 90.2653 171.977 90.2653Z" fill="#BF9E4B"/>
<path d="M193.212 69.1147L206.748 88.9582V70.8179C206.748 70.3046 206.655 69.9196 206.48 69.663C206.305 69.4064 206.061 69.2197 205.746 69.1147H208.309C207.959 69.2547 207.703 69.453 207.552 69.7213C207.4 69.9896 207.319 70.3513 207.295 70.8296V90.8364H205.49L191.814 70.7829V89.1332C191.814 89.5998 191.896 89.9731 192.047 90.2297C192.199 90.4864 192.455 90.6964 192.805 90.8364H190.265C190.603 90.6964 190.859 90.5097 191.022 90.2531C191.185 90.0081 191.267 89.6231 191.267 89.1215V70.3279C191.267 70.1763 191.244 70.0246 191.197 69.8846C191.15 69.7447 191.092 69.628 191.011 69.523C190.941 69.418 190.859 69.3363 190.778 69.2547C190.696 69.1847 190.615 69.1264 190.545 69.103H193.224L193.212 69.1147Z" fill="#BF9E4B"/>
<path d="M238.164 77.8177C238.455 77.9111 238.712 77.9927 238.91 78.0511C239.119 78.1094 239.306 78.156 239.492 78.191C239.678 78.226 239.865 78.2494 240.051 78.2727C240.238 78.296 240.471 78.3194 240.75 78.3427V78.7743C240.319 78.751 239.923 78.751 239.527 78.751C239.131 78.751 238.747 78.7743 238.362 78.821C237.582 78.9143 236.871 79.0893 236.219 79.3693C235.567 79.6493 235.007 80.0342 234.53 80.5242C234.052 81.0142 233.679 81.5974 233.423 82.274C233.167 82.9507 233.027 83.7439 233.015 84.6189C233.039 85.4938 233.179 86.2871 233.435 86.987C233.691 87.6986 234.064 88.2936 234.541 88.7952C235.019 89.2969 235.601 89.6818 236.289 89.9618C236.976 90.2418 237.768 90.3701 238.653 90.3701C239.678 90.3701 240.599 90.1951 241.391 89.8452C242.183 89.4952 242.847 89.0402 243.359 88.4802C243.884 87.9203 244.245 87.3137 244.466 86.6254C244.687 85.9488 244.734 85.2722 244.606 84.6189C244.478 83.9656 244.163 83.359 243.674 82.799C243.173 82.2391 242.474 81.8191 241.577 81.5275C240.738 81.4925 240.04 81.4691 239.48 81.4458C238.921 81.4225 238.397 81.3991 237.931 81.3641L237.978 81.0375C238.362 81.0375 238.875 81.0025 239.527 80.9442C240.179 80.8858 240.902 80.8042 241.705 80.6992C242.509 80.5942 243.359 80.5009 244.268 80.3842C245.177 80.2676 246.062 80.1625 246.959 80.0576L246.912 81.6674C246.633 81.6674 246.295 81.6674 245.91 81.6674C245.526 81.6674 245.107 81.6558 244.641 81.6324C245.2 82.0407 245.596 82.5424 245.829 83.1607C246.062 83.7789 246.143 84.4206 246.074 85.1089C246.004 85.7855 245.794 86.4738 245.433 87.1504C245.072 87.827 244.583 88.4336 243.953 88.9819C243.324 89.5302 242.567 89.9735 241.682 90.3118C240.797 90.6501 239.795 90.8251 238.677 90.8251C237.71 90.8251 236.755 90.7084 235.834 90.4751C234.914 90.2418 234.087 89.8802 233.353 89.3785C232.631 88.8769 232.037 88.2353 231.594 87.4537C231.14 86.672 230.907 85.7388 230.884 84.6422C230.86 83.6506 231.024 82.7757 231.373 82.0291C231.722 81.2825 232.2 80.6409 232.806 80.1276C233.412 79.6143 234.134 79.206 234.949 78.9027C235.765 78.5993 236.65 78.4127 237.57 78.3194C236.988 78.1444 236.429 77.9111 235.893 77.6078C235.368 77.3161 234.903 76.9545 234.495 76.5228C234.087 76.0912 233.773 75.6012 233.54 75.0296C233.307 74.4697 233.19 73.828 233.19 73.1048C233.19 72.3815 233.353 71.7632 233.656 71.2499C233.959 70.7366 234.355 70.3283 234.844 70.0017C235.334 69.6867 235.881 69.4534 236.498 69.3017C237.116 69.1501 237.733 69.0801 238.362 69.0801C238.805 69.0801 239.236 69.1034 239.678 69.1501C240.109 69.1967 240.564 69.2784 241.018 69.3834C241.472 69.4884 241.962 69.64 242.462 69.8267C242.975 70.0133 243.523 70.235 244.105 70.5033L243.872 72.8248C243.651 72.4515 243.383 72.0665 243.068 71.6815C242.754 71.2966 242.369 70.9349 241.95 70.62C241.531 70.305 241.065 70.0483 240.54 69.85C240.028 69.6517 239.469 69.5467 238.875 69.5467C238.362 69.5467 237.885 69.64 237.454 69.815C237.011 69.99 236.627 70.235 236.3 70.55C235.974 70.8649 235.718 71.2382 235.532 71.6699C235.345 72.1132 235.24 72.5915 235.229 73.1048C235.205 73.793 235.275 74.3997 235.438 74.9246C235.59 75.4612 235.811 75.9162 236.091 76.2895C236.37 76.6745 236.685 76.9895 237.046 77.2344C237.407 77.4794 237.78 77.6661 238.164 77.7827V77.8177Z" fill="#BF9E4B"/>
<path d="M277.012 90.8251C276.43 90.8251 275.847 90.7901 275.265 90.7085C274.682 90.6268 274.088 90.4868 273.471 90.2885C272.853 90.0902 272.224 89.8219 271.572 89.4836C270.92 89.1453 270.232 88.7253 269.51 88.212L270.477 85.2956C270.687 86.1472 271.001 86.8938 271.421 87.5121C271.84 88.1303 272.353 88.6553 272.935 89.0636C273.517 89.4719 274.181 89.7752 274.927 89.9735C275.661 90.1718 276.453 90.2652 277.303 90.2652C277.967 90.2652 278.596 90.1602 279.19 89.9502C279.784 89.7402 280.308 89.4369 280.751 89.052C281.205 88.667 281.567 88.2003 281.834 87.6637C282.102 87.1271 282.254 86.5205 282.277 85.8672C282.277 85.0856 282.137 84.409 281.811 83.8607C281.485 83.3124 281.077 82.8341 280.565 82.4374C280.052 82.0408 279.481 81.7025 278.852 81.4225C278.223 81.1425 277.594 80.8859 276.965 80.6526C276.464 80.4659 275.952 80.2676 275.439 80.0576C274.915 79.8476 274.414 79.6143 273.937 79.346C273.447 79.0894 272.993 78.7861 272.574 78.4594C272.154 78.1328 271.782 77.7478 271.467 77.3278C271.153 76.9079 270.908 76.4179 270.745 75.8813C270.582 75.3447 270.5 74.7264 270.512 74.0498C270.535 73.2915 270.71 72.6032 271.048 71.9966C271.386 71.3783 271.852 70.865 272.434 70.4334C273.016 70.0017 273.715 69.6751 274.507 69.4418C275.3 69.2085 276.162 69.0918 277.082 69.0918C277.653 69.0918 278.223 69.1385 278.794 69.2201C279.365 69.3134 279.947 69.4534 280.541 69.6517C281.136 69.8501 281.741 70.1067 282.37 70.4217C282.988 70.7367 283.64 71.11 284.316 71.5533L283.325 74.4814C283.104 73.5481 282.778 72.7782 282.312 72.1482C281.858 71.5299 281.345 71.04 280.763 70.6667C280.18 70.2934 279.575 70.0367 278.922 69.8734C278.27 69.7217 277.653 69.6401 277.07 69.6401C276.441 69.6401 275.847 69.7451 275.288 69.9667C274.729 70.1884 274.24 70.48 273.82 70.8767C273.413 71.2616 273.098 71.7283 272.877 72.2649C272.655 72.8015 272.585 73.4081 272.644 74.0614C272.702 74.6797 272.888 75.228 273.203 75.683C273.517 76.1379 273.902 76.5579 274.368 76.9195C274.834 77.2812 275.358 77.5961 275.929 77.8645C276.499 78.1328 277.082 78.3778 277.653 78.6111C278.188 78.8211 278.748 79.031 279.307 79.2527C279.866 79.4743 280.413 79.731 280.938 79.9993C281.462 80.2676 281.951 80.5826 282.405 80.9209C282.86 81.2709 283.244 81.6675 283.558 82.1341C283.873 82.5891 284.106 83.114 284.257 83.6973C284.409 84.2806 284.432 84.9573 284.351 85.7272C284.257 86.6371 283.966 87.4187 283.489 88.0604C283.011 88.702 282.417 89.2269 281.73 89.6352C281.031 90.0435 280.274 90.3352 279.447 90.5218C278.619 90.7085 277.804 90.8018 277 90.8018L277.012 90.8251Z" fill="#BF9E4B"/>
<path d="M301.067 69.1152H301.497C301.649 69.1152 301.789 69.1152 301.928 69.1269C302.732 69.1619 303.489 69.3252 304.2 69.6285C304.911 69.9318 305.528 70.3518 306.064 70.8768C306.6 71.4017 307.007 72.0433 307.322 72.7666C307.625 73.5016 307.788 74.3065 307.788 75.1931C307.788 76.0797 307.636 76.9313 307.322 77.6662C307.007 78.4012 306.588 79.0311 306.052 79.5561C305.516 80.0811 304.899 80.4894 304.188 80.781C303.478 81.0843 302.721 81.2476 301.917 81.271C301.812 81.271 301.684 81.2826 301.556 81.2826H294.671V89.1104C294.671 89.577 294.753 89.9386 294.904 90.1953C295.056 90.4403 295.312 90.6503 295.673 90.8252H291.596C291.724 90.7669 291.841 90.6969 291.969 90.6269C292.085 90.5569 292.19 90.4519 292.283 90.3236C292.377 90.1953 292.447 90.032 292.505 89.8453C292.563 89.6587 292.586 89.4137 292.586 89.122V70.8184C292.621 70.2935 292.528 69.9085 292.318 69.6518C292.109 69.3952 291.876 69.2086 291.596 69.1152H301.09H301.067ZM300.752 80.7227C301.532 80.7227 302.243 80.5594 302.86 80.2327C303.478 79.9061 304.002 79.4744 304.421 78.9495C304.841 78.4245 305.167 77.8296 305.388 77.1646C305.609 76.4997 305.714 75.8464 305.714 75.1931C305.714 74.5398 305.598 73.8865 305.376 73.2333C305.155 72.58 304.829 71.985 304.398 71.46C303.967 70.9351 303.454 70.5035 302.837 70.1768C302.22 69.8502 301.532 69.6868 300.74 69.6868H294.636V80.7343H300.752V80.7227Z" fill="#BF9E4B"/>
<path d="M310.176 90.79C310.281 90.755 310.409 90.7083 310.537 90.6616C310.665 90.615 310.816 90.5333 310.968 90.4283C311.119 90.3234 311.282 90.1717 311.457 89.985C311.62 89.7984 311.795 89.5534 311.958 89.2501L319.879 70.6315C319.961 70.4682 319.972 70.2932 319.914 70.1066C319.856 69.9199 319.774 69.7566 319.658 69.6166C319.541 69.4649 319.425 69.3483 319.297 69.2433C319.169 69.1383 319.075 69.08 319.005 69.0566H321.824L330.223 88.9234C330.503 89.4951 330.817 89.915 331.155 90.195C331.493 90.475 331.865 90.6733 332.285 90.8017H327.299C327.416 90.7667 327.532 90.72 327.649 90.65C327.765 90.58 327.87 90.4867 327.952 90.3584C328.033 90.23 328.091 90.09 328.126 89.9034C328.161 89.7284 328.15 89.5301 328.091 89.2968L324.41 80.5708H316.268L312.575 89.2384C312.459 89.635 312.459 89.9617 312.575 90.2184C312.692 90.475 312.948 90.6616 313.368 90.7666H310.187L310.176 90.79ZM324.166 80.0225L320.345 70.9232L316.478 80.0575L324.166 80.0341V80.0225Z" fill="#BF9E4B"/>
</svg>
